<mxfile host="app.diagrams.net" agent="Mozilla/5.0 (Windows NT 10.0; Win64; x64) AppleWebKit/537.36 (KHTML, like Gecko) Chrome/138.0.0.0 Safari/537.36" version="27.2.0">
  <diagram name="第 1 页" id="gDFdGI8v3rHq9BG2nt6h">
    <mxGraphModel dx="1042" dy="665" grid="0" gridSize="10" guides="1" tooltips="1" connect="1" arrows="1" fold="1" page="0" pageScale="1" pageWidth="827" pageHeight="1169" math="0" shadow="0">
      <root>
        <mxCell id="0" />
        <mxCell id="1" parent="0" />
        <mxCell id="CsxyF5KTJl0ESODpYBOV-135" value="" style="rounded=1;whiteSpace=wrap;html=1;strokeColor=#82b366;align=center;verticalAlign=middle;fontFamily=Comic Sans MS;fontSize=12;fillColor=#d5e8d4;fillStyle=solid;" vertex="1" parent="1">
          <mxGeometry x="379.8899999999999" y="72" width="873" height="1214" as="geometry" />
        </mxCell>
        <mxCell id="CsxyF5KTJl0ESODpYBOV-136" value="" style="rounded=1;whiteSpace=wrap;html=1;strokeColor=#9673a6;align=center;verticalAlign=middle;fontFamily=Comic Sans MS;fontSize=12;fillColor=#e1d5e7;fillStyle=solid;" vertex="1" parent="1">
          <mxGeometry x="371" y="1916" width="873" height="284" as="geometry" />
        </mxCell>
        <mxCell id="CsxyF5KTJl0ESODpYBOV-137" value="" style="rounded=1;whiteSpace=wrap;html=1;strokeColor=#6c8ebf;align=center;verticalAlign=middle;fontFamily=Comic Sans MS;fontSize=12;fillColor=#dae8fc;fillStyle=solid;" vertex="1" parent="1">
          <mxGeometry x="385" y="1311" width="857" height="390" as="geometry" />
        </mxCell>
        <mxCell id="CsxyF5KTJl0ESODpYBOV-138" value="" style="rounded=1;whiteSpace=wrap;html=1;strokeColor=#d79b00;align=center;verticalAlign=middle;fontFamily=Comic Sans MS;fontSize=12;fillColor=#ffe6cc;fillStyle=solid;" vertex="1" parent="1">
          <mxGeometry x="385" y="1721" width="851" height="168" as="geometry" />
        </mxCell>
        <mxCell id="CsxyF5KTJl0ESODpYBOV-139" value="" style="rounded=1;whiteSpace=wrap;html=1;strokeColor=#d79b00;align=center;verticalAlign=middle;fontFamily=Comic Sans MS;fontSize=12;fillColor=#ffe6cc;fillStyle=solid;" vertex="1" parent="1">
          <mxGeometry x="857.9999999999999" y="1751" width="359" height="132" as="geometry" />
        </mxCell>
        <mxCell id="CsxyF5KTJl0ESODpYBOV-140" value="" style="rounded=1;whiteSpace=wrap;html=1;strokeColor=#d79b00;align=center;verticalAlign=middle;fontFamily=Comic Sans MS;fontSize=12;fillColor=#ffe6cc;fillStyle=solid;" vertex="1" parent="1">
          <mxGeometry x="407" y="1751" width="139" height="125" as="geometry" />
        </mxCell>
        <mxCell id="CsxyF5KTJl0ESODpYBOV-141" value="" style="rounded=1;whiteSpace=wrap;html=1;strokeColor=#9673a6;align=center;verticalAlign=middle;fontFamily=Comic Sans MS;fontSize=12;fillColor=#e1d5e7;fillStyle=solid;" vertex="1" parent="1">
          <mxGeometry x="379.8900000000001" y="1959" width="412" height="220" as="geometry" />
        </mxCell>
        <mxCell id="CsxyF5KTJl0ESODpYBOV-142" value="PackageManager" style="rounded=1;whiteSpace=wrap;html=1;strokeColor=#36393d;align=center;verticalAlign=middle;fontFamily=Comic Sans MS;fontSize=12;fillColor=#ffcc99;fillStyle=auto;" vertex="1" parent="1">
          <mxGeometry x="392.8900000000001" y="2001" width="120" height="45" as="geometry" />
        </mxCell>
        <mxCell id="CsxyF5KTJl0ESODpYBOV-143" value="AppWidgetManager" style="rounded=1;whiteSpace=wrap;html=1;strokeColor=#36393d;align=center;verticalAlign=middle;fontFamily=Comic Sans MS;fontSize=12;fillColor=#ffcc99;fillStyle=auto;" vertex="1" parent="1">
          <mxGeometry x="519.2599999999999" y="2003" width="120" height="45" as="geometry" />
        </mxCell>
        <mxCell id="CsxyF5KTJl0ESODpYBOV-144" value="UsageStatsManager" style="rounded=1;whiteSpace=wrap;html=1;strokeColor=#36393d;align=center;verticalAlign=middle;fontFamily=Comic Sans MS;fontSize=12;fillColor=#ffcc99;fillStyle=auto;" vertex="1" parent="1">
          <mxGeometry x="650.2400000000001" y="2005" width="120" height="45" as="geometry" />
        </mxCell>
        <mxCell id="CsxyF5KTJl0ESODpYBOV-145" value="InputChannel" style="rounded=1;whiteSpace=wrap;html=1;strokeColor=#36393d;align=center;verticalAlign=middle;fontFamily=Comic Sans MS;fontSize=12;fillColor=#ffcc99;fillStyle=auto;" vertex="1" parent="1">
          <mxGeometry x="391.53999999999996" y="2059" width="120" height="45" as="geometry" />
        </mxCell>
        <mxCell id="CsxyF5KTJl0ESODpYBOV-146" value="系统接口" style="text;html=1;align=center;verticalAlign=middle;whiteSpace=wrap;rounded=0;fontFamily=Comic Sans MS;fontSize=12;fontColor=default;" vertex="1" parent="1">
          <mxGeometry x="555.8899999999998" y="1961" width="60" height="30" as="geometry" />
        </mxCell>
        <mxCell id="CsxyF5KTJl0ESODpYBOV-147" value="" style="rounded=1;whiteSpace=wrap;html=1;strokeColor=#9673a6;align=center;verticalAlign=middle;fontFamily=Comic Sans MS;fontSize=12;fillColor=#e1d5e7;fillStyle=solid;" vertex="1" parent="1">
          <mxGeometry x="817.8899999999998" y="1961" width="412" height="223" as="geometry" />
        </mxCell>
        <mxCell id="CsxyF5KTJl0ESODpYBOV-148" value="导航SDK" style="rounded=1;whiteSpace=wrap;html=1;strokeColor=#36393d;align=center;verticalAlign=middle;fontFamily=Comic Sans MS;fontSize=12;fillColor=#ffcc99;fillStyle=auto;" vertex="1" parent="1">
          <mxGeometry x="830.8899999999998" y="2003" width="120" height="45" as="geometry" />
        </mxCell>
        <mxCell id="CsxyF5KTJl0ESODpYBOV-149" value="车机管家应用" style="rounded=1;whiteSpace=wrap;html=1;strokeColor=#36393d;align=center;verticalAlign=middle;fontFamily=Comic Sans MS;fontSize=12;fillColor=#ffcc99;fillStyle=auto;" vertex="1" parent="1">
          <mxGeometry x="1088.2400000000002" y="2007" width="120" height="45" as="geometry" />
        </mxCell>
        <mxCell id="CsxyF5KTJl0ESODpYBOV-150" value="备忘录应用" style="rounded=1;whiteSpace=wrap;html=1;strokeColor=#36393d;align=center;verticalAlign=middle;fontFamily=Comic Sans MS;fontSize=12;fillColor=#ffcc99;fillStyle=auto;" vertex="1" parent="1">
          <mxGeometry x="829.5399999999998" y="2061" width="120" height="45" as="geometry" />
        </mxCell>
        <mxCell id="CsxyF5KTJl0ESODpYBOV-151" value="三方接口" style="text;html=1;align=center;verticalAlign=middle;whiteSpace=wrap;rounded=0;fontFamily=Comic Sans MS;fontSize=12;fontColor=default;" vertex="1" parent="1">
          <mxGeometry x="993.8899999999998" y="1963" width="60" height="30" as="geometry" />
        </mxCell>
        <mxCell id="CsxyF5KTJl0ESODpYBOV-152" value="天气应用" style="rounded=1;whiteSpace=wrap;html=1;strokeColor=#36393d;align=center;verticalAlign=middle;fontFamily=Comic Sans MS;fontSize=12;fillColor=#ffcc99;fillStyle=auto;" vertex="1" parent="1">
          <mxGeometry x="957.8899999999998" y="2061" width="120" height="45" as="geometry" />
        </mxCell>
        <mxCell id="CsxyF5KTJl0ESODpYBOV-153" value="WallpaperService" style="rounded=1;whiteSpace=wrap;html=1;strokeColor=#36393d;align=center;verticalAlign=middle;fontFamily=Comic Sans MS;fontSize=12;fillColor=#ffcc99;fillStyle=auto;" vertex="1" parent="1">
          <mxGeometry x="519.2599999999999" y="2059" width="120" height="45" as="geometry" />
        </mxCell>
        <mxCell id="CsxyF5KTJl0ESODpYBOV-154" value="系统广播" style="rounded=1;whiteSpace=wrap;html=1;strokeColor=#36393d;align=center;verticalAlign=middle;fontFamily=Comic Sans MS;fontSize=12;fillColor=#ffcc99;fillStyle=auto;" vertex="1" parent="1">
          <mxGeometry x="649.1800000000002" y="2059" width="120" height="45" as="geometry" />
        </mxCell>
        <mxCell id="CsxyF5KTJl0ESODpYBOV-155" value="DockDataSource" style="rounded=1;whiteSpace=wrap;html=1;strokeColor=#d6b656;align=center;verticalAlign=middle;fontFamily=Comic Sans MS;fontSize=12;fillColor=#fff2cc;fillStyle=auto;" vertex="1" parent="1">
          <mxGeometry x="418.5" y="1779" width="120" height="36" as="geometry" />
        </mxCell>
        <mxCell id="CsxyF5KTJl0ESODpYBOV-156" value="DockDao" style="rounded=1;whiteSpace=wrap;html=1;strokeColor=#d6b656;align=center;verticalAlign=middle;fontFamily=Comic Sans MS;fontSize=12;fillColor=#fff2cc;fillStyle=auto;" vertex="1" parent="1">
          <mxGeometry x="416.5" y="1832" width="120" height="30" as="geometry" />
        </mxCell>
        <mxCell id="CsxyF5KTJl0ESODpYBOV-157" value="CardDataSource" style="rounded=1;whiteSpace=wrap;html=1;strokeColor=#d6b656;align=center;verticalAlign=middle;fontFamily=Comic Sans MS;fontSize=12;fillColor=#fff2cc;fillStyle=auto;" vertex="1" parent="1">
          <mxGeometry x="977.4999999999999" y="1785" width="120" height="36.5" as="geometry" />
        </mxCell>
        <mxCell id="CsxyF5KTJl0ESODpYBOV-158" value="WallpaperDataSource" style="rounded=1;whiteSpace=wrap;html=1;strokeColor=#d6b656;align=center;verticalAlign=middle;fontFamily=Comic Sans MS;fontSize=12;fillColor=#fff2cc;fillStyle=auto;" vertex="1" parent="1">
          <mxGeometry x="710.9999999999999" y="1801" width="136.46" height="45" as="geometry" />
        </mxCell>
        <mxCell id="CsxyF5KTJl0ESODpYBOV-159" value="车控车设SDK" style="rounded=1;whiteSpace=wrap;html=1;strokeColor=#36393d;align=center;verticalAlign=middle;fontFamily=Comic Sans MS;fontSize=12;fillColor=#ffcc99;fillStyle=auto;" vertex="1" parent="1">
          <mxGeometry x="959.9399999999999" y="2005" width="120" height="45" as="geometry" />
        </mxCell>
        <mxCell id="CsxyF5KTJl0ESODpYBOV-160" value="数据层" style="text;html=1;align=center;verticalAlign=middle;whiteSpace=wrap;rounded=0;fontFamily=Comic Sans MS;fontSize=12;fontColor=default;fontStyle=1;" vertex="1" parent="1">
          <mxGeometry x="782.9999999999999" y="1721" width="60" height="30" as="geometry" />
        </mxCell>
        <mxCell id="CsxyF5KTJl0ESODpYBOV-161" value="Dock管理" style="text;html=1;align=center;verticalAlign=middle;whiteSpace=wrap;rounded=0;fontFamily=Comic Sans MS;fontSize=12;fontColor=default;" vertex="1" parent="1">
          <mxGeometry x="450.3299999999999" y="1749" width="60" height="30" as="geometry" />
        </mxCell>
        <mxCell id="CsxyF5KTJl0ESODpYBOV-162" value="卡片管理" style="text;html=1;align=center;verticalAlign=middle;whiteSpace=wrap;rounded=0;fontFamily=Comic Sans MS;fontSize=12;fontColor=default;" vertex="1" parent="1">
          <mxGeometry x="1014.9999999999999" y="1751" width="60" height="30" as="geometry" />
        </mxCell>
        <mxCell id="CsxyF5KTJl0ESODpYBOV-163" value="DockRepository" style="rounded=1;whiteSpace=wrap;html=1;strokeColor=#36393d;align=center;verticalAlign=middle;fontFamily=Comic Sans MS;fontSize=12;fillColor=#cdeb8b;" vertex="1" parent="1">
          <mxGeometry x="407" y="1511" width="120" height="45" as="geometry" />
        </mxCell>
        <mxCell id="CsxyF5KTJl0ESODpYBOV-164" value="AppRepository" style="rounded=1;whiteSpace=wrap;html=1;strokeColor=#36393d;align=center;verticalAlign=middle;fontFamily=Comic Sans MS;fontSize=12;fillColor=#cdeb8b;" vertex="1" parent="1">
          <mxGeometry x="568.9999999999999" y="1511" width="120" height="45" as="geometry" />
        </mxCell>
        <mxCell id="CsxyF5KTJl0ESODpYBOV-165" value="WallpaperRepository" style="rounded=1;whiteSpace=wrap;html=1;strokeColor=#36393d;align=center;verticalAlign=middle;fontFamily=Comic Sans MS;fontSize=12;fillColor=#cdeb8b;" vertex="1" parent="1">
          <mxGeometry x="729.2299999999999" y="1511" width="120" height="45" as="geometry" />
        </mxCell>
        <mxCell id="CsxyF5KTJl0ESODpYBOV-166" value="业务逻辑层" style="text;html=1;align=center;verticalAlign=middle;whiteSpace=wrap;rounded=0;fontFamily=Comic Sans MS;fontSize=12;fontColor=default;fontStyle=1;" vertex="1" parent="1">
          <mxGeometry x="782.9999999999999" y="1319" width="73" height="30" as="geometry" />
        </mxCell>
        <mxCell id="CsxyF5KTJl0ESODpYBOV-167" value="MeidaSession" style="rounded=1;whiteSpace=wrap;html=1;strokeColor=#36393d;align=center;verticalAlign=middle;fontFamily=Comic Sans MS;fontSize=12;fillColor=#ffcc99;fillStyle=auto;" vertex="1" parent="1">
          <mxGeometry x="391.53999999999996" y="2117" width="120" height="45" as="geometry" />
        </mxCell>
        <mxCell id="CsxyF5KTJl0ESODpYBOV-168" value="Settings" style="rounded=1;whiteSpace=wrap;html=1;strokeColor=#36393d;align=center;verticalAlign=middle;fontFamily=Comic Sans MS;fontSize=12;fillColor=#ffcc99;fillStyle=auto;" vertex="1" parent="1">
          <mxGeometry x="519.2599999999999" y="2117" width="120" height="45" as="geometry" />
        </mxCell>
        <mxCell id="CsxyF5KTJl0ESODpYBOV-169" value="基础依赖层" style="text;html=1;align=center;verticalAlign=middle;whiteSpace=wrap;rounded=0;fontFamily=Comic Sans MS;fontSize=12;fontColor=default;fontStyle=1;" vertex="1" parent="1">
          <mxGeometry x="770.9999999999999" y="1927" width="64" height="30" as="geometry" />
        </mxCell>
        <mxCell id="CsxyF5KTJl0ESODpYBOV-170" value="WindowManager" style="rounded=1;whiteSpace=wrap;html=1;strokeColor=#36393d;align=center;verticalAlign=middle;fontFamily=Comic Sans MS;fontSize=12;fillColor=#ffcc99;fillStyle=auto;" vertex="1" parent="1">
          <mxGeometry x="650.9999999999999" y="2117" width="120" height="45" as="geometry" />
        </mxCell>
        <mxCell id="CsxyF5KTJl0ESODpYBOV-171" value="" style="rounded=1;whiteSpace=wrap;html=1;strokeColor=#d79b00;align=center;verticalAlign=middle;fontFamily=Comic Sans MS;fontSize=12;fillColor=#ffe6cc;fillStyle=solid;" vertex="1" parent="1">
          <mxGeometry x="557.9999999999999" y="1751" width="139" height="125" as="geometry" />
        </mxCell>
        <mxCell id="CsxyF5KTJl0ESODpYBOV-172" value="AppDataSource" style="rounded=1;whiteSpace=wrap;html=1;strokeColor=#d6b656;align=center;verticalAlign=middle;fontFamily=Comic Sans MS;fontSize=12;fillColor=#fff2cc;fillStyle=auto;" vertex="1" parent="1">
          <mxGeometry x="569.4999999999999" y="1779" width="120" height="36" as="geometry" />
        </mxCell>
        <mxCell id="CsxyF5KTJl0ESODpYBOV-173" value="IAppProcessor" style="rounded=1;whiteSpace=wrap;html=1;strokeColor=#d6b656;align=center;verticalAlign=middle;fontFamily=Comic Sans MS;fontSize=12;fillColor=#fff2cc;fillStyle=auto;" vertex="1" parent="1">
          <mxGeometry x="567.4999999999999" y="1832" width="120" height="30" as="geometry" />
        </mxCell>
        <mxCell id="CsxyF5KTJl0ESODpYBOV-174" value="应用管理" style="text;html=1;align=center;verticalAlign=middle;whiteSpace=wrap;rounded=0;fontFamily=Comic Sans MS;fontSize=12;fontColor=default;" vertex="1" parent="1">
          <mxGeometry x="601.3299999999998" y="1749" width="60" height="30" as="geometry" />
        </mxCell>
        <mxCell id="CsxyF5KTJl0ESODpYBOV-175" value="用户交互层" style="text;html=1;align=center;verticalAlign=middle;whiteSpace=wrap;rounded=0;fontFamily=Comic Sans MS;fontSize=12;fontColor=default;fontStyle=1;" vertex="1" parent="1">
          <mxGeometry x="786.3899999999999" y="82" width="68" height="30" as="geometry" />
        </mxCell>
        <mxCell id="CsxyF5KTJl0ESODpYBOV-176" value="车控车设适配层" style="rounded=1;whiteSpace=wrap;html=1;strokeColor=#d6b656;align=center;verticalAlign=middle;fontFamily=Comic Sans MS;fontSize=12;fillColor=#fff2cc;container=0;fillStyle=auto;" vertex="1" parent="1">
          <mxGeometry x="1102.46" y="1841" width="102.23" height="33" as="geometry" />
        </mxCell>
        <mxCell id="CsxyF5KTJl0ESODpYBOV-177" value="导航适配层" style="rounded=1;whiteSpace=wrap;html=1;strokeColor=#d6b656;align=center;verticalAlign=middle;fontFamily=Comic Sans MS;fontSize=12;fillColor=#fff2cc;fillStyle=auto;" vertex="1" parent="1">
          <mxGeometry x="863.9999999999999" y="1843" width="102.23" height="33" as="geometry" />
        </mxCell>
        <mxCell id="CsxyF5KTJl0ESODpYBOV-178" value="..." style="rounded=1;whiteSpace=wrap;html=1;strokeColor=#d6b656;align=center;verticalAlign=middle;fontFamily=Comic Sans MS;fontSize=12;fillColor=#fff2cc;fillStyle=auto;" vertex="1" parent="1">
          <mxGeometry x="983.2299999999999" y="1841" width="102.23" height="33" as="geometry" />
        </mxCell>
        <mxCell id="CsxyF5KTJl0ESODpYBOV-179" value="" style="rounded=1;whiteSpace=wrap;html=1;strokeColor=#6c8ebf;align=center;verticalAlign=middle;fontFamily=Comic Sans MS;fontSize=12;fillColor=#dae8fc;fillStyle=solid;" vertex="1" parent="1">
          <mxGeometry x="895.9999999999999" y="1351" width="285" height="334" as="geometry" />
        </mxCell>
        <mxCell id="CsxyF5KTJl0ESODpYBOV-180" value="NaviRepository" style="rounded=1;whiteSpace=wrap;html=1;strokeColor=#36393d;align=center;verticalAlign=middle;fontFamily=Comic Sans MS;fontSize=12;fillColor=#cdeb8b;" vertex="1" parent="1">
          <mxGeometry x="909.2400000000001" y="1385" width="120" height="45" as="geometry" />
        </mxCell>
        <mxCell id="CsxyF5KTJl0ESODpYBOV-181" value="MeidaRepository" style="rounded=1;whiteSpace=wrap;html=1;strokeColor=#36393d;align=center;verticalAlign=middle;fontFamily=Comic Sans MS;fontSize=12;fillColor=#cdeb8b;" vertex="1" parent="1">
          <mxGeometry x="1048.2400000000002" y="1388" width="120" height="45" as="geometry" />
        </mxCell>
        <mxCell id="CsxyF5KTJl0ESODpYBOV-182" value="WeatherRepository" style="rounded=1;whiteSpace=wrap;html=1;strokeColor=#36393d;align=center;verticalAlign=middle;fontFamily=Comic Sans MS;fontSize=12;fillColor=#cdeb8b;" vertex="1" parent="1">
          <mxGeometry x="908.2400000000001" y="1444" width="120" height="45" as="geometry" />
        </mxCell>
        <mxCell id="CsxyF5KTJl0ESODpYBOV-183" value="&lt;div style=&quot;text-align: left;&quot;&gt;&lt;span style=&quot;background-color: transparent; font-size: 13px;&quot;&gt;&lt;font face=&quot;Helvetica Neue, Helvetica, Arial, Hiragino Sans GB, Hiragino Sans GB W3, Microsoft YaHei UI, Microsoft YaHei, sans-serif&quot; color=&quot;#333333&quot;&gt;TireRepository&lt;/font&gt;&lt;/span&gt;&lt;/div&gt;" style="rounded=1;whiteSpace=wrap;html=1;strokeColor=#36393d;align=center;verticalAlign=middle;fontFamily=Comic Sans MS;fontSize=12;fillColor=#cdeb8b;" vertex="1" parent="1">
          <mxGeometry x="1048.2400000000002" y="1446" width="120" height="45" as="geometry" />
        </mxCell>
        <mxCell id="CsxyF5KTJl0ESODpYBOV-184" value="&lt;div style=&quot;text-align: start;&quot;&gt;&lt;span style=&quot;background-color: transparent; font-size: 13px;&quot;&gt;&lt;font face=&quot;Helvetica Neue, Helvetica, Arial, Hiragino Sans GB, Hiragino Sans GB W3, Microsoft YaHei UI, Microsoft YaHei, sans-serif&quot; color=&quot;#333333&quot;&gt;PerformanceRepository&lt;/font&gt;&lt;/span&gt;&lt;/div&gt;" style="rounded=1;whiteSpace=wrap;html=1;strokeColor=#36393d;align=center;verticalAlign=middle;fontFamily=Comic Sans MS;fontSize=12;fillColor=#cdeb8b;" vertex="1" parent="1">
          <mxGeometry x="909.2400000000001" y="1503" width="120" height="45" as="geometry" />
        </mxCell>
        <mxCell id="CsxyF5KTJl0ESODpYBOV-185" value="&lt;div style=&quot;text-align: start;&quot;&gt;&lt;span style=&quot;background-color: transparent; font-size: 13px;&quot;&gt;&lt;font face=&quot;Helvetica Neue, Helvetica, Arial, Hiragino Sans GB, Hiragino Sans GB W3, Microsoft YaHei UI, Microsoft YaHei, sans-serif&quot; color=&quot;#333333&quot;&gt;StorageRepository&lt;/font&gt;&lt;/span&gt;&lt;/div&gt;" style="rounded=1;whiteSpace=wrap;html=1;strokeColor=#36393d;align=center;verticalAlign=middle;fontFamily=Comic Sans MS;fontSize=12;fillColor=#cdeb8b;" vertex="1" parent="1">
          <mxGeometry x="1049.2400000000002" y="1505" width="120" height="45" as="geometry" />
        </mxCell>
        <mxCell id="CsxyF5KTJl0ESODpYBOV-186" value="&lt;div style=&quot;text-align: start;&quot;&gt;&lt;span style=&quot;background-color: transparent; font-size: 13px;&quot;&gt;&lt;font face=&quot;Helvetica Neue, Helvetica, Arial, Hiragino Sans GB, Hiragino Sans GB W3, Microsoft YaHei UI, Microsoft YaHei, sans-serif&quot; color=&quot;#333333&quot;&gt;GalleryRepository&lt;/font&gt;&lt;/span&gt;&lt;/div&gt;" style="rounded=1;whiteSpace=wrap;html=1;strokeColor=#36393d;align=center;verticalAlign=middle;fontFamily=Comic Sans MS;fontSize=12;fillColor=#cdeb8b;" vertex="1" parent="1">
          <mxGeometry x="908.2400000000001" y="1564" width="120" height="45" as="geometry" />
        </mxCell>
        <mxCell id="CsxyF5KTJl0ESODpYBOV-187" value="&lt;div style=&quot;text-align: start;&quot;&gt;&lt;span style=&quot;background-color: transparent; font-size: 13px;&quot;&gt;&lt;font face=&quot;Helvetica Neue, Helvetica, Arial, Hiragino Sans GB, Hiragino Sans GB W3, Microsoft YaHei UI, Microsoft YaHei, sans-serif&quot; color=&quot;#333333&quot;&gt;EnergyRepository&lt;/font&gt;&lt;/span&gt;&lt;/div&gt;" style="rounded=1;whiteSpace=wrap;html=1;strokeColor=#36393d;align=center;verticalAlign=middle;fontFamily=Comic Sans MS;fontSize=12;fillColor=#cdeb8b;" vertex="1" parent="1">
          <mxGeometry x="1048.2400000000002" y="1566" width="120" height="45" as="geometry" />
        </mxCell>
        <mxCell id="CsxyF5KTJl0ESODpYBOV-188" value="&lt;div style=&quot;text-align: start;&quot;&gt;&lt;span style=&quot;background-color: transparent; font-size: 13px;&quot;&gt;&lt;font face=&quot;Helvetica Neue, Helvetica, Arial, Hiragino Sans GB, Hiragino Sans GB W3, Microsoft YaHei UI, Microsoft YaHei, sans-serif&quot; color=&quot;#333333&quot;&gt;MemoRepository&lt;/font&gt;&lt;/span&gt;&lt;/div&gt;" style="rounded=1;whiteSpace=wrap;html=1;strokeColor=#36393d;align=center;verticalAlign=middle;fontFamily=Comic Sans MS;fontSize=12;fillColor=#cdeb8b;" vertex="1" parent="1">
          <mxGeometry x="908.2400000000001" y="1620" width="120" height="45" as="geometry" />
        </mxCell>
        <mxCell id="CsxyF5KTJl0ESODpYBOV-189" value="卡片业务" style="text;html=1;align=center;verticalAlign=middle;whiteSpace=wrap;rounded=0;fontFamily=Comic Sans MS;fontSize=12;fontColor=default;" vertex="1" parent="1">
          <mxGeometry x="1008.9999999999999" y="1351" width="60" height="30" as="geometry" />
        </mxCell>
        <mxCell id="CsxyF5KTJl0ESODpYBOV-190" value="行车报告" style="rounded=1;whiteSpace=wrap;html=1;strokeColor=#36393d;align=center;verticalAlign=middle;fontFamily=Comic Sans MS;fontSize=12;fillColor=#ffcc99;fillStyle=auto;" vertex="1" parent="1">
          <mxGeometry x="1090" y="2059" width="120" height="45" as="geometry" />
        </mxCell>
        <mxCell id="CsxyF5KTJl0ESODpYBOV-191" value="图库应用" style="rounded=1;whiteSpace=wrap;html=1;strokeColor=#36393d;align=center;verticalAlign=middle;fontFamily=Comic Sans MS;fontSize=12;fillColor=#ffcc99;fillStyle=auto;" vertex="1" parent="1">
          <mxGeometry x="830.8899999999998" y="2119" width="120" height="45" as="geometry" />
        </mxCell>
        <mxCell id="CsxyF5KTJl0ESODpYBOV-192" value="" style="rounded=1;whiteSpace=wrap;html=1;strokeColor=#82b366;align=center;verticalAlign=middle;fontFamily=Comic Sans MS;fontSize=12;fillColor=#d5e8d4;" vertex="1" parent="1">
          <mxGeometry x="409.8899999999999" y="955" width="817" height="109" as="geometry" />
        </mxCell>
        <mxCell id="CsxyF5KTJl0ESODpYBOV-193" value="交互控制" style="text;html=1;align=center;verticalAlign=middle;whiteSpace=wrap;rounded=0;fontFamily=Comic Sans MS;fontSize=12;fontColor=default;" vertex="1" parent="1">
          <mxGeometry x="789.8899999999999" y="961" width="60" height="30" as="geometry" />
        </mxCell>
        <mxCell id="CsxyF5KTJl0ESODpYBOV-194" value="" style="rounded=1;whiteSpace=wrap;html=1;strokeColor=#82b366;align=center;verticalAlign=middle;fontFamily=Comic Sans MS;fontSize=12;fillColor=#d5e8d4;" vertex="1" parent="1">
          <mxGeometry x="407.8899999999999" y="1086" width="543.5" height="153" as="geometry" />
        </mxCell>
        <mxCell id="CsxyF5KTJl0ESODpYBOV-195" value="SmartDockRecyclerView" style="rounded=1;whiteSpace=wrap;html=1;strokeColor=#36393d;align=center;verticalAlign=middle;fontFamily=Comic Sans MS;fontSize=12;fillColor=#f9f7ed;" vertex="1" parent="1">
          <mxGeometry x="429.0899999999999" y="1131.5" width="141.3" height="42" as="geometry" />
        </mxCell>
        <mxCell id="CsxyF5KTJl0ESODpYBOV-196" value="自定义控件" style="text;html=1;align=center;verticalAlign=middle;whiteSpace=wrap;rounded=0;fontFamily=Comic Sans MS;fontSize=12;fontColor=default;" vertex="1" parent="1">
          <mxGeometry x="649.3899999999999" y="1090" width="64" height="30" as="geometry" />
        </mxCell>
        <mxCell id="CsxyF5KTJl0ESODpYBOV-197" value="" style="rounded=1;whiteSpace=wrap;html=1;strokeColor=#82b366;align=center;verticalAlign=middle;fontFamily=Comic Sans MS;fontSize=12;fillColor=#d5e8d4;" vertex="1" parent="1">
          <mxGeometry x="977.3899999999999" y="1086" width="249" height="154" as="geometry" />
        </mxCell>
        <mxCell id="CsxyF5KTJl0ESODpYBOV-198" value="公共控件" style="text;html=1;align=center;verticalAlign=middle;whiteSpace=wrap;rounded=0;fontFamily=Comic Sans MS;fontSize=12;fontColor=default;" vertex="1" parent="1">
          <mxGeometry x="1069.8899999999999" y="1090" width="64" height="30" as="geometry" />
        </mxCell>
        <mxCell id="CsxyF5KTJl0ESODpYBOV-199" value="FullScreenMaskView" style="rounded=1;whiteSpace=wrap;html=1;strokeColor=#36393d;align=center;verticalAlign=middle;fontFamily=Comic Sans MS;fontSize=12;fillColor=#f9f7ed;" vertex="1" parent="1">
          <mxGeometry x="583.8899999999999" y="1132" width="123" height="42" as="geometry" />
        </mxCell>
        <mxCell id="CsxyF5KTJl0ESODpYBOV-200" value="" style="group" vertex="1" connectable="0" parent="1">
          <mxGeometry x="426.8899999999999" y="998" width="783.9936805011747" height="44.5" as="geometry" />
        </mxCell>
        <mxCell id="CsxyF5KTJl0ESODpYBOV-201" value="" style="group" vertex="1" connectable="0" parent="CsxyF5KTJl0ESODpYBOV-200">
          <mxGeometry width="664" height="44.5" as="geometry" />
        </mxCell>
        <mxCell id="CsxyF5KTJl0ESODpYBOV-202" value="跨组件拖拽&lt;div&gt;DragDropController&lt;/div&gt;" style="rounded=1;whiteSpace=wrap;html=1;strokeColor=#36393d;align=center;verticalAlign=middle;fontFamily=Comic Sans MS;fontSize=12;fillColor=#f9f7ed;" vertex="1" parent="CsxyF5KTJl0ESODpYBOV-201">
          <mxGeometry width="112.40368050117463" height="42" as="geometry" />
        </mxCell>
        <mxCell id="CsxyF5KTJl0ESODpYBOV-203" value="组件内拖拽&lt;br&gt;&lt;div&gt;ItemTouchHelper&lt;/div&gt;" style="rounded=1;whiteSpace=wrap;html=1;strokeColor=#36393d;align=center;verticalAlign=middle;fontFamily=Comic Sans MS;fontSize=12;fillColor=#f9f7ed;" vertex="1" parent="CsxyF5KTJl0ESODpYBOV-201">
          <mxGeometry x="134.0706342991386" y="2.5" width="112.40368050117463" height="42" as="geometry" />
        </mxCell>
        <mxCell id="CsxyF5KTJl0ESODpYBOV-204" value="手势&lt;div&gt;GestureHelper&lt;/div&gt;" style="rounded=1;whiteSpace=wrap;html=1;strokeColor=#36393d;align=center;verticalAlign=middle;fontFamily=Comic Sans MS;fontSize=12;fillColor=#f9f7ed;" vertex="1" parent="CsxyF5KTJl0ESODpYBOV-201">
          <mxGeometry x="268.5481597494127" y="2.5" width="112.40368050117463" height="42" as="geometry" />
        </mxCell>
        <mxCell id="CsxyF5KTJl0ESODpYBOV-205" value="Dock栏状态&lt;br&gt;&lt;div&gt;SmartDockManager&lt;/div&gt;" style="rounded=1;whiteSpace=wrap;html=1;strokeColor=#36393d;align=center;verticalAlign=middle;fontFamily=Comic Sans MS;fontSize=12;fillColor=#f9f7ed;" vertex="1" parent="CsxyF5KTJl0ESODpYBOV-201">
          <mxGeometry x="402.82223962411905" y="2.5" width="112.40368050117463" height="42" as="geometry" />
        </mxCell>
        <mxCell id="CsxyF5KTJl0ESODpYBOV-206" value="Mask状态&lt;div&gt;SmartDockMaskManager&lt;/div&gt;" style="rounded=1;whiteSpace=wrap;html=1;strokeColor=#36393d;align=center;verticalAlign=middle;fontFamily=Comic Sans MS;fontSize=12;fillColor=#f9f7ed;" vertex="1" parent="CsxyF5KTJl0ESODpYBOV-201">
          <mxGeometry x="531" y="2.5" width="133" height="42" as="geometry" />
        </mxCell>
        <mxCell id="CsxyF5KTJl0ESODpYBOV-207" value="长按编辑&lt;div&gt;OnLongClickListener&lt;/div&gt;" style="rounded=1;whiteSpace=wrap;html=1;strokeColor=#36393d;align=center;verticalAlign=middle;fontFamily=Comic Sans MS;fontSize=12;fillColor=#f9f7ed;" vertex="1" parent="CsxyF5KTJl0ESODpYBOV-200">
          <mxGeometry x="671.59" y="2.5" width="112.40368050117463" height="42" as="geometry" />
        </mxCell>
        <mxCell id="CsxyF5KTJl0ESODpYBOV-208" value="SmartDockView" style="rounded=1;whiteSpace=wrap;html=1;strokeColor=#36393d;align=center;verticalAlign=middle;fontFamily=Comic Sans MS;fontSize=12;fillColor=#f9f7ed;" vertex="1" parent="1">
          <mxGeometry x="721.3999999999999" y="1131.5" width="98.99" height="42" as="geometry" />
        </mxCell>
        <mxCell id="CsxyF5KTJl0ESODpYBOV-209" value="HorizontalCenterLinearLayoutManager" style="rounded=1;whiteSpace=wrap;html=1;strokeColor=#36393d;align=center;verticalAlign=middle;fontFamily=Comic Sans MS;fontSize=12;fillColor=#f9f7ed;" vertex="1" parent="1">
          <mxGeometry x="426.8899999999999" y="1189" width="219.5" height="42" as="geometry" />
        </mxCell>
        <mxCell id="CsxyF5KTJl0ESODpYBOV-210" value="SmartDockToobar" style="rounded=1;whiteSpace=wrap;html=1;strokeColor=#36393d;align=center;verticalAlign=middle;fontFamily=Comic Sans MS;fontSize=12;fillColor=#f9f7ed;" vertex="1" parent="1">
          <mxGeometry x="836.8899999999999" y="1132" width="102.5" height="42" as="geometry" />
        </mxCell>
        <mxCell id="CsxyF5KTJl0ESODpYBOV-211" value="BaseMediaView" style="rounded=1;whiteSpace=wrap;html=1;strokeColor=#36393d;align=center;verticalAlign=middle;fontFamily=Comic Sans MS;fontSize=12;fillColor=#f9f7ed;" vertex="1" parent="1">
          <mxGeometry x="660.5399999999997" y="1189" width="110.5" height="42" as="geometry" />
        </mxCell>
        <mxCell id="CsxyF5KTJl0ESODpYBOV-212" value="AppView" style="rounded=1;whiteSpace=wrap;html=1;strokeColor=#36393d;align=center;verticalAlign=middle;fontFamily=Comic Sans MS;fontSize=12;fillColor=#f9f7ed;" vertex="1" parent="1">
          <mxGeometry x="987.9799999999998" y="1131.5" width="110.5" height="42" as="geometry" />
        </mxCell>
        <mxCell id="CsxyF5KTJl0ESODpYBOV-213" value="CardView" style="rounded=1;whiteSpace=wrap;html=1;strokeColor=#36393d;align=center;verticalAlign=middle;fontFamily=Comic Sans MS;fontSize=12;fillColor=#f9f7ed;" vertex="1" parent="1">
          <mxGeometry x="1109.6299999999999" y="1131.5" width="110.5" height="42" as="geometry" />
        </mxCell>
        <mxCell id="CsxyF5KTJl0ESODpYBOV-214" value="MainActivity&lt;br&gt;Launcher入口" style="rounded=1;whiteSpace=wrap;html=1;strokeColor=#82b366;align=center;verticalAlign=middle;fontFamily=Comic Sans MS;fontSize=12;fontColor=default;fillColor=#d5e8d4;" vertex="1" parent="1">
          <mxGeometry x="418.3899999999999" y="133" width="794.37" height="71" as="geometry" />
        </mxCell>
        <mxCell id="CsxyF5KTJl0ESODpYBOV-215" value="..." style="rounded=1;whiteSpace=wrap;html=1;strokeColor=#36393d;align=center;verticalAlign=middle;fontFamily=Comic Sans MS;fontSize=12;fillColor=#f9f7ed;" vertex="1" parent="1">
          <mxGeometry x="789.3899999999999" y="1189" width="110.5" height="42" as="geometry" />
        </mxCell>
        <mxCell id="CsxyF5KTJl0ESODpYBOV-216" value="" style="rounded=1;whiteSpace=wrap;html=1;strokeColor=#82b366;align=center;verticalAlign=middle;fontFamily=Comic Sans MS;fontSize=12;fillColor=#d5e8d4;" vertex="1" parent="1">
          <mxGeometry x="410.7599999999999" y="669" width="807" height="255" as="geometry" />
        </mxCell>
        <mxCell id="CsxyF5KTJl0ESODpYBOV-217" value="窗口管理" style="text;html=1;align=center;verticalAlign=middle;whiteSpace=wrap;rounded=0;fontFamily=Comic Sans MS;fontSize=12;fontColor=default;" vertex="1" parent="1">
          <mxGeometry x="769.7599999999999" y="675" width="60" height="30" as="geometry" />
        </mxCell>
        <mxCell id="CsxyF5KTJl0ESODpYBOV-218" value="" style="rounded=1;whiteSpace=wrap;html=1;strokeColor=#6c8ebf;align=center;verticalAlign=middle;fontFamily=Comic Sans MS;fontSize=12;fillColor=#dae8fc;" vertex="1" parent="1">
          <mxGeometry x="449.0099999999999" y="700" width="307.75" height="209" as="geometry" />
        </mxCell>
        <mxCell id="CsxyF5KTJl0ESODpYBOV-219" value="" style="rounded=1;whiteSpace=wrap;html=1;strokeColor=#b85450;align=center;verticalAlign=middle;fontFamily=Comic Sans MS;fontSize=12;fillColor=#f8cecc;fillStyle=solid;" vertex="1" parent="1">
          <mxGeometry x="468.3899999999999" y="725.6100000000006" width="263.37" height="172.29" as="geometry" />
        </mxCell>
        <mxCell id="CsxyF5KTJl0ESODpYBOV-220" value="SmartDockWindow" style="text;html=1;align=center;verticalAlign=middle;whiteSpace=wrap;rounded=0;fontFamily=Comic Sans MS;fontSize=12;fontColor=default;" vertex="1" parent="1">
          <mxGeometry x="574.3726467955951" y="699.5247610249498" width="55.383380676290905" height="26.085885448742996" as="geometry" />
        </mxCell>
        <mxCell id="CsxyF5KTJl0ESODpYBOV-221" value="RecyclerView" style="text;html=1;align=center;verticalAlign=middle;whiteSpace=wrap;rounded=0;fontFamily=Comic Sans MS;fontSize=12;fontColor=default;" vertex="1" parent="1">
          <mxGeometry x="563.572646795595" y="723.9150006531909" width="55.383380676290905" height="26.085885448742996" as="geometry" />
        </mxCell>
        <mxCell id="CsxyF5KTJl0ESODpYBOV-222" value="" style="group" vertex="1" connectable="0" parent="1">
          <mxGeometry x="480.02999999999986" y="759.9599999999991" width="240.73" height="125.01" as="geometry" />
        </mxCell>
        <mxCell id="CsxyF5KTJl0ESODpYBOV-223" value="常驻" style="rounded=1;whiteSpace=wrap;html=1;strokeColor=#36393d;align=center;verticalAlign=middle;fontFamily=Comic Sans MS;fontSize=12;fillColor=#cce5ff;" vertex="1" parent="CsxyF5KTJl0ESODpYBOV-222">
          <mxGeometry y="42.614310153299364" width="114.90120817381798" height="37.031770717617576" as="geometry" />
        </mxCell>
        <mxCell id="CsxyF5KTJl0ESODpYBOV-224" value="动态" style="rounded=1;whiteSpace=wrap;html=1;strokeColor=#36393d;align=center;verticalAlign=middle;fontFamily=Comic Sans MS;fontSize=12;fillColor=#cce5ff;" vertex="1" parent="CsxyF5KTJl0ESODpYBOV-222">
          <mxGeometry x="123.56667429025984" y="42.614310153299364" width="114.90120817381798" height="37.031770717617576" as="geometry" />
        </mxCell>
        <mxCell id="CsxyF5KTJl0ESODpYBOV-225" value="快捷方式" style="rounded=1;whiteSpace=wrap;html=1;strokeColor=#82b366;align=center;verticalAlign=middle;fontFamily=Comic Sans MS;fontSize=12;fillColor=#d5e8d4;" vertex="1" parent="CsxyF5KTJl0ESODpYBOV-222">
          <mxGeometry x="2.2621175359219006" y="87.97822928238163" width="114.90120817381798" height="37.031770717617576" as="geometry" />
        </mxCell>
        <mxCell id="CsxyF5KTJl0ESODpYBOV-226" value="服务卡片" style="rounded=1;whiteSpace=wrap;html=1;strokeColor=#82b366;align=center;verticalAlign=middle;fontFamily=Comic Sans MS;fontSize=12;fillColor=#d5e8d4;" vertex="1" parent="CsxyF5KTJl0ESODpYBOV-222">
          <mxGeometry x="125.82879182618198" y="87.97822928238163" width="114.90120817381798" height="37.031770717617576" as="geometry" />
        </mxCell>
        <mxCell id="CsxyF5KTJl0ESODpYBOV-227" value="展示态" style="rounded=1;whiteSpace=wrap;html=1;strokeColor=#36393d;align=center;verticalAlign=middle;fontFamily=Comic Sans MS;fontSize=12;fillColor=#f9f7ed;" vertex="1" parent="CsxyF5KTJl0ESODpYBOV-222">
          <mxGeometry x="0.550568289165991" width="114.90120817381798" height="37.031770717617576" as="geometry" />
        </mxCell>
        <mxCell id="CsxyF5KTJl0ESODpYBOV-228" value="编辑态" style="rounded=1;whiteSpace=wrap;html=1;strokeColor=#36393d;align=center;verticalAlign=middle;fontFamily=Comic Sans MS;fontSize=12;fillColor=#f9f7ed;" vertex="1" parent="CsxyF5KTJl0ESODpYBOV-222">
          <mxGeometry x="124.11724257942609" width="114.90120817381798" height="37.031770717617576" as="geometry" />
        </mxCell>
        <mxCell id="CsxyF5KTJl0ESODpYBOV-229" value="" style="rounded=1;whiteSpace=wrap;html=1;strokeColor=#6c8ebf;align=center;verticalAlign=middle;fontFamily=Comic Sans MS;fontSize=12;fillColor=#dae8fc;" vertex="1" parent="1">
          <mxGeometry x="870.8999999999999" y="702" width="298.86" height="208" as="geometry" />
        </mxCell>
        <mxCell id="CsxyF5KTJl0ESODpYBOV-230" value="SmartDockMaskWindow" style="text;html=1;align=center;verticalAlign=middle;whiteSpace=wrap;rounded=0;fontFamily=Comic Sans MS;fontSize=12;fontColor=default;" vertex="1" parent="1">
          <mxGeometry x="995.7600000000001" y="705" width="60" height="30" as="geometry" />
        </mxCell>
        <mxCell id="CsxyF5KTJl0ESODpYBOV-231" value="" style="rounded=1;whiteSpace=wrap;html=1;strokeColor=#36393d;align=center;verticalAlign=middle;fontFamily=Comic Sans MS;fontSize=12;fillColor=#f9f7ed;fillStyle=solid;" vertex="1" parent="1">
          <mxGeometry x="893.5699999999999" y="745.3500000000004" width="253.19" height="140.65" as="geometry" />
        </mxCell>
        <mxCell id="CsxyF5KTJl0ESODpYBOV-232" value="显示全屏半透明遮罩" style="text;html=1;align=center;verticalAlign=middle;whiteSpace=wrap;rounded=0;fontFamily=Comic Sans MS;fontSize=12;fontColor=default;" vertex="1" parent="1">
          <mxGeometry x="951.24" y="796.75" width="130" height="30" as="geometry" />
        </mxCell>
        <mxCell id="CsxyF5KTJl0ESODpYBOV-233" value="..." style="rounded=1;whiteSpace=wrap;html=1;strokeColor=#36393d;align=center;verticalAlign=middle;fontFamily=Comic Sans MS;fontSize=12;fillColor=#f9f7ed;" vertex="1" parent="1">
          <mxGeometry x="989.7499999999999" y="1184" width="110.5" height="42" as="geometry" />
        </mxCell>
        <mxCell id="CsxyF5KTJl0ESODpYBOV-234" value="" style="group" vertex="1" connectable="0" parent="1">
          <mxGeometry x="414.7599999999999" y="232" width="396" height="417" as="geometry" />
        </mxCell>
        <mxCell id="CsxyF5KTJl0ESODpYBOV-235" value="" style="rounded=1;whiteSpace=wrap;html=1;strokeColor=#82b366;align=center;verticalAlign=middle;fontFamily=Comic Sans MS;fontSize=12;fillColor=#d5e8d4;" vertex="1" parent="CsxyF5KTJl0ESODpYBOV-234">
          <mxGeometry width="396" height="417" as="geometry" />
        </mxCell>
        <mxCell id="CsxyF5KTJl0ESODpYBOV-236" value="" style="rounded=1;whiteSpace=wrap;html=1;strokeColor=#36393d;align=center;verticalAlign=middle;fontFamily=Comic Sans MS;fontSize=12;fillColor=#cce5ff;" vertex="1" parent="CsxyF5KTJl0ESODpYBOV-234">
          <mxGeometry x="15.01022146507666" y="39.45000000000073" width="365.1632708688245" height="289.55" as="geometry" />
        </mxCell>
        <mxCell id="CsxyF5KTJl0ESODpYBOV-237" value="" style="rounded=1;whiteSpace=wrap;html=1;strokeColor=#36393d;align=center;verticalAlign=middle;fontFamily=Comic Sans MS;fontSize=12;fillColor=#ffcccc;" vertex="1" parent="CsxyF5KTJl0ESODpYBOV-234">
          <mxGeometry x="27.75373083475297" y="81.70999999999913" width="157.49601362862012" height="226.29" as="geometry" />
        </mxCell>
        <mxCell id="CsxyF5KTJl0ESODpYBOV-238" value="AppCenterFragment" style="text;html=1;align=center;verticalAlign=middle;whiteSpace=wrap;rounded=0;fontFamily=Comic Sans MS;fontSize=12;fontColor=default;" vertex="1" parent="CsxyF5KTJl0ESODpYBOV-234">
          <mxGeometry x="90.62290241365278" y="86.40670859538659" width="38.10390315237219" height="28.176100628930822" as="geometry" />
        </mxCell>
        <mxCell id="CsxyF5KTJl0ESODpYBOV-239" value="AppCenterViewModel" style="rounded=1;whiteSpace=wrap;html=1;strokeColor=#36393d;align=center;verticalAlign=middle;fontFamily=Comic Sans MS;fontSize=12;fillColor=#cce5ff;" vertex="1" parent="CsxyF5KTJl0ESODpYBOV-234">
          <mxGeometry x="20.913117546848383" y="345.6299999999992" width="163.93185689948893" height="48.84" as="geometry" />
        </mxCell>
        <mxCell id="CsxyF5KTJl0ESODpYBOV-240" value="LauncherActivity" style="text;html=1;align=center;verticalAlign=middle;whiteSpace=wrap;rounded=0;fontFamily=Comic Sans MS;fontSize=12;fontColor=default;" vertex="1" parent="CsxyF5KTJl0ESODpYBOV-234">
          <mxGeometry x="180.79593101264868" y="9.453626834380884" width="38.10390315237219" height="28.176100628930822" as="geometry" />
        </mxCell>
        <mxCell id="CsxyF5KTJl0ESODpYBOV-241" value="" style="rounded=1;whiteSpace=wrap;html=1;strokeColor=#36393d;align=center;verticalAlign=middle;fontFamily=Comic Sans MS;fontSize=12;fillColor=#f9f7ed;fillStyle=solid;" vertex="1" parent="CsxyF5KTJl0ESODpYBOV-234">
          <mxGeometry x="39.18173764906306" y="114.57999999999993" width="133.99911413969338" height="177.42" as="geometry" />
        </mxCell>
        <mxCell id="CsxyF5KTJl0ESODpYBOV-242" value="RecyclerView" style="text;html=1;align=center;verticalAlign=middle;whiteSpace=wrap;rounded=0;fontFamily=Comic Sans MS;fontSize=12;fontColor=default;" vertex="1" parent="CsxyF5KTJl0ESODpYBOV-234">
          <mxGeometry x="90.62290241365278" y="123.03563941299763" width="38.10390315237219" height="28.176100628930822" as="geometry" />
        </mxCell>
        <mxCell id="CsxyF5KTJl0ESODpYBOV-243" value="ViewPager" style="text;html=1;align=center;verticalAlign=middle;whiteSpace=wrap;rounded=0;fontFamily=Comic Sans MS;fontSize=12;fontColor=default;" vertex="1" parent="CsxyF5KTJl0ESODpYBOV-234">
          <mxGeometry x="171.91122913871342" y="46.02096436058673" width="38.10390315237219" height="28.176100628930822" as="geometry" />
        </mxCell>
        <mxCell id="CsxyF5KTJl0ESODpYBOV-244" value="常用应用" style="rounded=1;whiteSpace=wrap;html=1;strokeColor=#82b366;align=center;verticalAlign=middle;fontFamily=Comic Sans MS;fontSize=12;fillColor=#d5e8d4;fillStyle=auto;" vertex="1" parent="CsxyF5KTJl0ESODpYBOV-234">
          <mxGeometry x="55.03181212404467" y="159.66660377358494" width="103.51560356394447" height="48.83857442348009" as="geometry" />
        </mxCell>
        <mxCell id="CsxyF5KTJl0ESODpYBOV-245" value="全部应用" style="rounded=1;whiteSpace=wrap;html=1;strokeColor=#82b366;align=center;verticalAlign=middle;fontFamily=Comic Sans MS;fontSize=12;fillColor=#d5e8d4;" vertex="1" parent="CsxyF5KTJl0ESODpYBOV-234">
          <mxGeometry x="54.42465709849102" y="220.7088888888884" width="103.51560356394447" height="48.83857442348009" as="geometry" />
        </mxCell>
        <mxCell id="CsxyF5KTJl0ESODpYBOV-246" value="" style="rounded=1;whiteSpace=wrap;html=1;strokeColor=#36393d;align=center;verticalAlign=middle;fontFamily=Comic Sans MS;fontSize=12;fillColor=#ffcccc;" vertex="1" parent="CsxyF5KTJl0ESODpYBOV-234">
          <mxGeometry x="208.74664395229982" y="81.70999999999913" width="157.49601362862012" height="225.29" as="geometry" />
        </mxCell>
        <mxCell id="CsxyF5KTJl0ESODpYBOV-247" value="CardFragment" style="text;html=1;align=center;verticalAlign=middle;whiteSpace=wrap;rounded=0;fontFamily=Comic Sans MS;fontSize=12;fontColor=default;" vertex="1" parent="CsxyF5KTJl0ESODpYBOV-234">
          <mxGeometry x="271.61644238742076" y="86.40670859538659" width="38.10390315237219" height="28.176100628930822" as="geometry" />
        </mxCell>
        <mxCell id="CsxyF5KTJl0ESODpYBOV-248" value="CardViewModel" style="rounded=1;whiteSpace=wrap;html=1;strokeColor=#36393d;align=center;verticalAlign=middle;fontFamily=Comic Sans MS;fontSize=12;fillColor=#cce5ff;" vertex="1" parent="CsxyF5KTJl0ESODpYBOV-234">
          <mxGeometry x="202.38500851788757" y="345.3899999999994" width="170.00340715502554" height="48.84" as="geometry" />
        </mxCell>
        <mxCell id="CsxyF5KTJl0ESODpYBOV-249" value="" style="rounded=1;whiteSpace=wrap;html=1;strokeColor=#36393d;align=center;verticalAlign=middle;fontFamily=Comic Sans MS;fontSize=12;fillColor=#f9f7ed;fillStyle=solid;" vertex="1" parent="CsxyF5KTJl0ESODpYBOV-234">
          <mxGeometry x="220.1746507666099" y="114.57999999999993" width="133.99911413969338" height="176.42" as="geometry" />
        </mxCell>
        <mxCell id="CsxyF5KTJl0ESODpYBOV-250" value="RecyclerView" style="text;html=1;align=center;verticalAlign=middle;whiteSpace=wrap;rounded=0;fontFamily=Comic Sans MS;fontSize=12;fontColor=default;" vertex="1" parent="CsxyF5KTJl0ESODpYBOV-234">
          <mxGeometry x="271.61644238742076" y="123.03563941299763" width="38.10390315237219" height="28.176100628930822" as="geometry" />
        </mxCell>
        <mxCell id="CsxyF5KTJl0ESODpYBOV-251" value="常用卡片" style="rounded=1;whiteSpace=wrap;html=1;strokeColor=#82b366;align=center;verticalAlign=middle;fontFamily=Comic Sans MS;fontSize=12;fillColor=#d5e8d4;" vertex="1" parent="CsxyF5KTJl0ESODpYBOV-234">
          <mxGeometry x="239.09042529134194" y="154.02660377358552" width="103.51560356394447" height="48.83857442348009" as="geometry" />
        </mxCell>
        <mxCell id="CsxyF5KTJl0ESODpYBOV-252" value="全部卡片" style="rounded=1;whiteSpace=wrap;html=1;strokeColor=#82b366;align=center;verticalAlign=middle;fontFamily=Comic Sans MS;fontSize=12;fillColor=#d5e8d4;" vertex="1" parent="CsxyF5KTJl0ESODpYBOV-234">
          <mxGeometry x="239.0881118933832" y="216.0188888888897" width="103.51560356394447" height="48.83857442348009" as="geometry" />
        </mxCell>
        <mxCell id="CsxyF5KTJl0ESODpYBOV-253" value="" style="rounded=1;whiteSpace=wrap;html=1;strokeColor=#82b366;align=center;verticalAlign=middle;fontFamily=Comic Sans MS;fontSize=12;fillColor=#d5e8d4;" vertex="1" parent="1">
          <mxGeometry x="830.7599999999999" y="228" width="396" height="417" as="geometry" />
        </mxCell>
        <mxCell id="CsxyF5KTJl0ESODpYBOV-254" value="" style="rounded=1;whiteSpace=wrap;html=1;strokeColor=#36393d;align=center;verticalAlign=middle;fontFamily=Comic Sans MS;fontSize=12;fillColor=#cce5ff;" vertex="1" parent="1">
          <mxGeometry x="845.7702214650765" y="267.4500000000007" width="365.1632708688245" height="289.55" as="geometry" />
        </mxCell>
        <mxCell id="CsxyF5KTJl0ESODpYBOV-255" value="" style="rounded=1;whiteSpace=wrap;html=1;strokeColor=#36393d;align=center;verticalAlign=middle;fontFamily=Comic Sans MS;fontSize=12;fillColor=#ffcccc;" vertex="1" parent="1">
          <mxGeometry x="858.5137308347528" y="309.7099999999991" width="157.49601362862012" height="226.29" as="geometry" />
        </mxCell>
        <mxCell id="CsxyF5KTJl0ESODpYBOV-256" value="AppCenterFragment" style="text;html=1;align=center;verticalAlign=middle;whiteSpace=wrap;rounded=0;fontFamily=Comic Sans MS;fontSize=12;fontColor=default;" vertex="1" parent="1">
          <mxGeometry x="921.3829024136527" y="314.4067085953866" width="38.10390315237219" height="28.176100628930822" as="geometry" />
        </mxCell>
        <mxCell id="CsxyF5KTJl0ESODpYBOV-257" value="AppCenterViewModel" style="rounded=1;whiteSpace=wrap;html=1;strokeColor=#36393d;align=center;verticalAlign=middle;fontFamily=Comic Sans MS;fontSize=12;fillColor=#cce5ff;" vertex="1" parent="1">
          <mxGeometry x="851.6731175468483" y="573.6299999999992" width="163.93185689948893" height="48.84" as="geometry" />
        </mxCell>
        <mxCell id="CsxyF5KTJl0ESODpYBOV-258" value="EditModeActivity" style="text;html=1;align=center;verticalAlign=middle;whiteSpace=wrap;rounded=0;fontFamily=Comic Sans MS;fontSize=12;fontColor=default;" vertex="1" parent="1">
          <mxGeometry x="1011.5559310126486" y="237.45362683438088" width="38.10390315237219" height="28.176100628930822" as="geometry" />
        </mxCell>
        <mxCell id="CsxyF5KTJl0ESODpYBOV-259" value="" style="rounded=1;whiteSpace=wrap;html=1;strokeColor=#36393d;align=center;verticalAlign=middle;fontFamily=Comic Sans MS;fontSize=12;fillColor=#f9f7ed;fillStyle=solid;" vertex="1" parent="1">
          <mxGeometry x="869.9417376490629" y="342.5799999999999" width="133.99911413969338" height="177.42" as="geometry" />
        </mxCell>
        <mxCell id="CsxyF5KTJl0ESODpYBOV-260" value="RecyclerView" style="text;html=1;align=center;verticalAlign=middle;whiteSpace=wrap;rounded=0;fontFamily=Comic Sans MS;fontSize=12;fontColor=default;" vertex="1" parent="1">
          <mxGeometry x="921.3829024136527" y="351.0356394129976" width="38.10390315237219" height="28.176100628930822" as="geometry" />
        </mxCell>
        <mxCell id="CsxyF5KTJl0ESODpYBOV-261" value="全部应用" style="rounded=1;whiteSpace=wrap;html=1;strokeColor=#82b366;align=center;verticalAlign=middle;fontFamily=Comic Sans MS;fontSize=12;fillColor=#d5e8d4;" vertex="1" parent="1">
          <mxGeometry x="885.1799999999998" y="395" width="103.52" height="102.55" as="geometry" />
        </mxCell>
        <mxCell id="CsxyF5KTJl0ESODpYBOV-262" value="" style="rounded=1;whiteSpace=wrap;html=1;strokeColor=#36393d;align=center;verticalAlign=middle;fontFamily=Comic Sans MS;fontSize=12;fillColor=#ffcccc;" vertex="1" parent="1">
          <mxGeometry x="1039.5066439522998" y="309.7099999999991" width="157.49601362862012" height="225.29" as="geometry" />
        </mxCell>
        <mxCell id="CsxyF5KTJl0ESODpYBOV-263" value="CardFragment" style="text;html=1;align=center;verticalAlign=middle;whiteSpace=wrap;rounded=0;fontFamily=Comic Sans MS;fontSize=12;fontColor=default;" vertex="1" parent="1">
          <mxGeometry x="1102.3764423874206" y="314.4067085953866" width="38.10390315237219" height="28.176100628930822" as="geometry" />
        </mxCell>
        <mxCell id="CsxyF5KTJl0ESODpYBOV-264" value="CardViewModel" style="rounded=1;whiteSpace=wrap;html=1;strokeColor=#36393d;align=center;verticalAlign=middle;fontFamily=Comic Sans MS;fontSize=12;fillColor=#cce5ff;" vertex="1" parent="1">
          <mxGeometry x="1033.1450085178874" y="573.3899999999994" width="170.00340715502554" height="48.84" as="geometry" />
        </mxCell>
        <mxCell id="CsxyF5KTJl0ESODpYBOV-265" value="" style="rounded=1;whiteSpace=wrap;html=1;strokeColor=#36393d;align=center;verticalAlign=middle;fontFamily=Comic Sans MS;fontSize=12;fillColor=#f9f7ed;fillStyle=solid;" vertex="1" parent="1">
          <mxGeometry x="1050.9346507666098" y="342.5799999999999" width="133.99911413969338" height="176.42" as="geometry" />
        </mxCell>
        <mxCell id="CsxyF5KTJl0ESODpYBOV-266" value="RecyclerView" style="text;html=1;align=center;verticalAlign=middle;whiteSpace=wrap;rounded=0;fontFamily=Comic Sans MS;fontSize=12;fontColor=default;" vertex="1" parent="1">
          <mxGeometry x="1102.3764423874206" y="351.0356394129976" width="38.10390315237219" height="28.176100628930822" as="geometry" />
        </mxCell>
        <mxCell id="CsxyF5KTJl0ESODpYBOV-267" value="全部卡片" style="rounded=1;whiteSpace=wrap;html=1;strokeColor=#82b366;align=center;verticalAlign=middle;fontFamily=Comic Sans MS;fontSize=12;fillColor=#d5e8d4;" vertex="1" parent="1">
          <mxGeometry x="1069.85" y="396" width="103.52" height="104" as="geometry" />
        </mxCell>
        <mxCell id="CsxyF5KTJl0ESODpYBOV-268" value="ViewPager" style="text;html=1;align=center;verticalAlign=middle;whiteSpace=wrap;rounded=0;fontFamily=Comic Sans MS;fontSize=12;fontColor=default;" vertex="1" parent="1">
          <mxGeometry x="1007.6599999999999" y="274" width="38.10390315237219" height="28.176100628930822" as="geometry" />
        </mxCell>
      </root>
    </mxGraphModel>
  </diagram>
</mxfile>
